<svg width="464" height="512" viewBox="0 0 464 512" fill="none" xmlns="http://www.w3.org/2000/svg">
<path d="M240.469 81.16L228.222 0H48.5408C21.4848 0 0 22.044 0 49.0968V388.872C0 415.925 21.484 437.522 48.5408 437.522H218.984L341.778 251.6V119.013L240.469 81.16Z" fill="#00ACEA"/>
<path d="M228.222 0.111996L341.444 119.013H266.075C245.144 119.013 228.222 102.09 228.222 81.1592V0.111996Z" fill="#00EFD1"/>
<path d="M235.016 266.075C235.016 259.953 230.003 254.941 223.882 254.941H78.8216C72.7 254.941 67.6872 259.953 67.6872 266.075C67.6872 272.2 72.7 277.206 78.8216 277.206H223.882C230.118 277.206 235.016 272.2 235.016 266.075ZM78.8216 221.544H191.598C197.718 221.544 202.731 216.534 202.731 210.41C202.731 204.287 197.718 199.278 191.597 199.278H78.8216C72.7 199.278 67.6872 204.287 67.6872 210.41C67.6872 216.534 72.7 221.544 78.8216 221.544ZM187.253 311.718H78.8216C72.7 311.718 67.6872 316.731 67.6872 322.85C67.6872 328.975 72.7 333.984 78.8216 333.984H187.254C193.378 333.984 198.387 328.975 198.387 322.85C198.387 316.731 193.378 311.718 187.253 311.718Z" fill="#083863"/>
<path d="M341.444 229.45C410.468 239.131 463.569 298.359 463.569 370.053C463.569 448.429 400.003 512 321.628 512C267.747 512 220.766 481.941 196.828 437.632C185.918 417.482 179.684 394.438 179.684 369.944C179.684 291.568 243.253 228 321.628 228C328.31 228.112 334.875 228.56 341.444 229.45Z" fill="#FEDB41"/>
<path d="M369.387 408.128C379.741 394.438 385.419 377.847 385.419 360.482C385.419 316.731 349.794 281.216 305.928 281.216C262.066 281.216 226.44 316.731 226.44 360.482C226.44 404.234 262.066 439.75 305.928 439.75C323.41 439.75 339.997 434.184 353.578 423.938L386.31 456.444C388.534 458.562 391.318 459.675 394.216 459.675C397.11 459.675 399.894 458.563 402.122 456.443C406.459 452.106 406.459 445.091 402.122 440.75L369.387 408.128ZM248.706 360.482C248.706 329.084 274.425 303.482 305.928 303.482C337.438 303.482 363.153 329.084 363.153 360.482C363.153 375.734 357.141 390.094 346.344 400.782C335.544 411.469 321.184 417.482 305.928 417.482C274.312 417.482 248.706 391.875 248.706 360.482Z" fill="#083863"/>
</svg>
