<svg width="438" height="512" viewBox="0 0 438 512" fill="none" xmlns="http://www.w3.org/2000/svg">
<path d="M218.999 256H33.1551C19.3465 256 8.15219 267.195 8.15219 281.003V459.909C8.15219 483.897 31.1118 501.216 54.1765 494.625L65.5208 491.384C96.9287 482.41 130.222 482.41 161.63 491.384L196.513 501.35C211.21 505.549 226.788 505.549 241.485 501.35C281.879 489.808 318.286 475.9 372.478 491.384L383.822 494.625C406.887 501.215 429.847 483.897 429.847 459.909V281.003C429.847 267.195 418.653 256 404.844 256H218.999Z" fill="#FF6E80"/>
<path d="M380.801 243.736C386.211 245.088 391.014 248.21 394.445 252.605C397.877 257 399.741 262.417 399.741 267.993V456.633C399.741 459.103 398.181 460.603 396.886 461.423C395.578 462.243 393.418 463.083 390.562 462.403L376.955 459.163C307.174 442.539 256.58 455.639 219.001 464.594V248.47L237.928 243.738C284.83 232.013 333.898 232.012 380.801 243.736Z" fill="#DBDAFD"/>
<path d="M57.1989 243.736C51.789 245.088 46.9864 248.21 43.5546 252.605C40.1227 257 38.2586 262.417 38.2587 267.993V456.633C38.2587 460.938 43.1952 463.414 47.4387 462.403L61.0463 459.163C105.253 448.632 151.993 448.632 196.212 459.163L219 464.594V248.47L200.073 243.738C153.17 232.013 104.102 232.012 57.1989 243.736ZM356.856 418.024L324.147 408.678C322.057 408.081 320.219 406.82 318.91 405.085C317.601 403.35 316.893 401.235 316.893 399.062V352.093C316.893 345.448 323.253 340.651 329.641 342.476L362.351 351.823C364.441 352.42 366.279 353.681 367.588 355.416C368.897 357.151 369.605 359.265 369.605 361.439V408.408C369.606 415.052 363.246 419.849 356.856 418.024Z" fill="#CACAFD"/>
<path d="M354.545 143.047C354.545 187.263 333.373 226.527 300.619 251.27C282.544 264.942 271.716 286.054 271.716 308.717H197.487C186.276 284.794 171.644 254.19 152.542 215.056C63.5816 32.7548 257.124 12.9325 257.124 12.9325C313.42 29.4044 354.545 81.4304 354.545 143.047Z" fill="#FCEC78"/>
<path d="M242.292 308.707V308.717H166.283C166.283 285.664 155.117 264.668 137.38 251.27C104.176 226.197 82.8838 186.192 83.4639 141.237C84.434 66.7087 146.211 6.57174 220.74 7.51185C233.361 7.67187 245.563 9.55209 257.124 12.9325C201.507 29.2444 160.263 80.4503 159.473 141.237C158.893 186.192 180.185 226.197 213.389 251.27C231.461 264.921 242.292 286.073 242.292 308.707Z" fill="#FFCF6B"/>
<path d="M142.934 178.342C159.148 178.342 172.292 167.874 172.292 154.962C172.292 142.05 159.148 131.582 142.934 131.582C126.72 131.582 113.575 142.05 113.575 154.962C113.575 167.874 126.72 178.342 142.934 178.342Z" fill="#FFA1AC"/>
<path d="M302.066 178.342C318.28 178.342 331.424 167.874 331.424 154.962C331.424 142.05 318.28 131.582 302.066 131.582C285.852 131.582 272.708 142.05 272.708 154.962C272.708 167.874 285.852 178.342 302.066 178.342Z" fill="#FFA1AC"/>
<path d="M260.416 293.652H177.583C167.186 293.652 158.758 302.081 158.758 312.478C158.758 322.875 167.187 331.303 177.583 331.303L218.999 343.344L260.416 331.303C270.813 331.303 279.241 322.875 279.241 312.478C279.241 302.081 270.813 293.652 260.416 293.652Z" fill="#7A8FA5"/>
<path d="M219 406.606C198.205 406.606 181.348 389.749 181.348 368.955V361.425H256.651V368.955C256.651 389.749 239.794 406.606 219 406.606Z" fill="#485C70"/>
<path d="M260.416 368.955H177.583C167.186 368.955 158.757 360.526 158.757 350.128C158.757 339.731 167.186 331.302 177.583 331.302H260.416C270.813 331.302 279.241 339.731 279.241 350.128C279.242 360.526 270.813 368.955 260.416 368.955Z" fill="#5B778F"/>
<path d="M8.1552 391.959V281.003C8.1552 267.192 19.3465 256 33.1581 256H41.329M396.67 256H404.841C418.653 256 429.844 267.192 429.844 281.003V459.904C429.844 483.897 406.891 501.219 383.818 494.628L372.477 491.388C318.152 475.851 281.104 490.034 241.482 501.349C226.788 505.549 211.211 505.549 196.517 501.349C156.124 489.814 119.706 475.892 65.5218 491.388L54.1805 494.628C31.1078 501.219 8.1552 483.897 8.1552 459.904V421.516" stroke="black" stroke-width="15.0017" stroke-miterlimit="10" stroke-linecap="round" stroke-linejoin="round"/>
<path d="M318.491 235.088C339.433 235.738 360.316 238.618 380.798 243.739C391.985 246.539 399.74 256.586 399.74 267.992V456.634C399.74 459.104 398.18 460.604 396.88 461.424C393.084 463.819 390.662 462.428 376.948 459.164C305.653 442.179 253.672 456.33 218.999 464.595V406.608" stroke="black" stroke-width="15.0017" stroke-miterlimit="10" stroke-linecap="round" stroke-linejoin="round"/>
<path d="M286.772 418.392C271.504 419.176 263.793 419.483 248.841 422.649M286.772 391.545C271.504 392.329 263.793 392.636 248.841 395.802M119.508 235.088C106.261 235.088 80.7576 237.85 57.2009 243.739C46.0136 246.539 38.2587 256.586 38.2587 267.992V456.634C38.2587 460.908 43.1452 463.425 47.4397 462.404L61.0513 459.164C105.256 448.633 151.992 448.633 196.217 459.164L219 464.595V406.608" stroke="black" stroke-width="15.0017" stroke-miterlimit="10" stroke-linecap="round" stroke-linejoin="round"/>
<path d="M76.004 424.364C113.23 417.561 151.82 418.06 188.856 425.859M76.004 388.769C113.23 381.966 151.82 382.465 188.856 390.264M76.003 358.652C103.496 353.622 131.739 352.582 159.543 355.522M76.003 328.529C105.116 323.208 135.08 322.348 164.463 325.969M324.923 58.4627C343.461 81.6484 354.546 111.054 354.546 143.047C354.546 178.582 340.875 210.915 318.492 235.088C318.492 235.098 318.482 235.098 318.482 235.108C316.743 236.847 311.069 243.38 300.62 251.27C284.83 263.212 275.019 280.621 272.527 298.065M165.473 298.065C162.909 280.478 153.152 263.199 137.38 251.27C130.97 246.431 125.003 241.032 119.548 235.138C119.528 235.128 119.518 235.108 119.508 235.088H119.498C96.7454 210.515 82.9938 177.481 83.4639 141.237C84.434 66.7087 146.211 6.57174 220.74 7.51185C251.3 7.89589 279.424 18.3941 301.918 35.8131M160.044 120.455V132.456M284.956 120.455V132.456M356.856 418.024L324.147 408.678C322.057 408.081 320.219 406.82 318.91 405.085C317.601 403.35 316.893 401.235 316.893 399.062V352.093C316.893 345.448 323.253 340.651 329.641 342.476L362.351 351.823C364.441 352.42 366.279 353.681 367.588 355.416C368.897 357.151 369.605 359.265 369.605 361.439V408.408C369.606 415.052 363.246 419.849 356.856 418.024Z" stroke="black" stroke-width="15.0017" stroke-miterlimit="10" stroke-linecap="round" stroke-linejoin="round"/>
<path d="M206.034 132.099C214.75 142.101 230.25 142.101 238.966 132.099M256.654 368.954C256.654 389.746 239.792 406.608 218.999 406.608C198.207 406.608 181.345 389.746 181.345 368.954M260.416 331.303H177.583C167.186 331.303 158.757 322.874 158.757 312.477C158.757 302.081 167.186 293.651 177.583 293.651H260.416C270.813 293.651 279.241 302.08 279.241 312.477C279.242 322.874 270.813 331.303 260.416 331.303Z" stroke="black" stroke-width="15.0017" stroke-miterlimit="10" stroke-linecap="round" stroke-linejoin="round"/>
<path d="M354.545 30.0925L384.666 7.50085M384.666 75.2737L422.318 67.7438M384.666 127.986L422.318 143.046M83.4549 30.0925L53.3334 7.50085M53.3334 75.2737L15.6821 67.7438M53.3334 127.986L15.6821 143.046M260.416 368.955H177.583C167.186 368.955 158.757 360.526 158.757 350.128C158.757 339.732 167.186 331.302 177.583 331.302H260.416C270.813 331.302 279.241 339.731 279.241 350.128C279.242 360.526 270.813 368.955 260.416 368.955Z" stroke="black" stroke-width="15.0017" stroke-miterlimit="10" stroke-linecap="round" stroke-linejoin="round"/>
</svg>
