<svg width="512" height="512" viewBox="0 0 512 512" fill="none" xmlns="http://www.w3.org/2000/svg">
<g clip-path="url(#clip0_4_18)">
<path d="M256 512C397.385 512 512 397.385 512 256C512 114.615 397.385 0 256 0C114.615 0 0 114.615 0 256C0 397.385 114.615 512 256 512Z" fill="#26A1F4"/>
<path d="M345.15 237.54L345.01 237.4L274.45 166.79C274.45 166.79 188.45 252.79 147.01 295.09C141.85 300.35 137.94 307.67 135.62 314.75C128.82 335.54 123.19 356.75 116.93 377.75C115.25 383.38 115.59 388.34 120 392.54C124.16 396.54 128.84 396.68 134.24 395.06C154.24 389.06 174.37 383.35 194.46 377.6C204.791 374.606 214.156 368.954 221.62 361.21C261.1 321.49 345.15 237.54 345.15 237.54ZM386.34 149.81L362.21 125.68C356.022 119.497 347.632 116.024 338.885 116.024C330.138 116.024 321.748 119.497 315.56 125.68L288.21 153L359 223.81L386.35 196.46C392.532 190.271 396.003 181.88 396.001 173.133C395.999 164.385 392.524 155.997 386.34 149.81Z" fill="white"/>
</g>
<defs>
<clipPath id="clip0_4_18">
<rect width="512" height="512" fill="white"/>
</clipPath>
</defs>
</svg>
