<svg width="512" height="512" viewBox="0 0 512 512" fill="none" xmlns="http://www.w3.org/2000/svg">
<path d="M192 248H480C484.243 248 488.313 249.686 491.314 252.686C494.314 255.687 496 259.757 496 264V464C496 472.487 492.629 480.626 486.627 486.627C480.626 492.629 472.487 496 464 496H48C39.5131 496 31.3737 492.629 25.3726 486.627C19.3714 480.626 16 472.487 16 464V176C16 171.757 17.6857 167.687 20.6863 164.686C23.6869 161.686 27.7565 160 32 160H97.376C101.619 160.001 105.688 161.687 108.688 164.688L192 248Z" fill="#F0AE42"/>
<path d="M448 96V432H160V16H368L448 96Z" fill="#E2E7F6"/>
<path d="M416 387.76V64L368 16H160V403.76H400C404.243 403.76 408.313 402.074 411.314 399.074C414.314 396.073 416 392.003 416 387.76Z" fill="#F2F2F2"/>
<path d="M368 16V96H448" fill="#C8CDED"/>
<path d="M304 368C365.856 368 416 317.856 416 256C416 194.144 365.856 144 304 144C242.144 144 192 194.144 192 256C192 317.856 242.144 368 304 368Z" fill="#559B2D"/>
<path d="M400 248C399.998 228.671 394.985 209.673 385.451 192.859C375.916 176.045 362.186 161.989 345.6 152.064C319.465 141.53 290.318 141.243 263.98 151.261C237.643 161.279 216.055 180.864 203.527 206.104C191 231.345 188.456 260.382 196.404 287.416C204.352 314.45 222.206 337.491 246.4 351.936C263.389 358.768 281.795 361.325 300.002 359.382C318.21 357.44 335.662 351.058 350.827 340.796C365.992 330.534 378.406 316.707 386.98 300.527C395.554 284.348 400.024 266.311 400 248Z" fill="#6BC13B"/>
<path d="M248 280L304 336L360 280H328V176H280V280H248Z" fill="#F2F2F2"/>
<path d="M40 456H152V472H40V456ZM168 456H184V472H168V456Z" fill="#D5883E"/>
<path d="M216 56H296V72H216V56ZM312 56H344V72H312V56ZM184 88H344V104H184V88Z" fill="#C8CDED"/>
</svg>
