<svg width="490" height="512" viewBox="0 0 490 512" fill="none" xmlns="http://www.w3.org/2000/svg">
<path d="M26.011 376.945H463.989C480.623 343.879 490.002 306.536 490.002 266.997C490.002 131.686 380.311 21.995 245 21.995C109.689 21.995 -0.00199986 131.687 -0.00199986 266.998C-0.00199986 306.536 9.377 343.88 26.011 376.945Z" fill="#73C3F9"/>
<path d="M123.025 105.506H146.011V137.75H123.025V105.506ZM343.989 105.506H366.975V137.75H343.989V105.506Z" fill="#E9EFFF"/>
<path d="M374.564 6.696H225.21C225.328 8.628 226.274 10.891 228.775 13.392C228.775 13.392 222.025 29.249 231.025 38.249C240.025 47.249 231.025 71.158 231.025 71.158C231.025 71.158 220.525 79.499 227.525 94.999C227.525 94.999 224.748 97.886 224.591 101.72H374.564C380.758 101.72 385.779 96.699 385.779 90.505V17.912C385.78 11.718 380.759 6.696 374.564 6.696Z" fill="#3C58A0"/>
<path d="M104.22 17.912V90.506C104.22 96.7 109.241 101.721 115.435 101.721H226.591C226.748 97.887 229.525 95 229.525 95C222.525 79.5 233.025 71.159 233.025 71.159C233.025 71.159 242.025 47.25 233.025 38.25C224.025 29.25 230.775 13.393 230.775 13.393C228.274 10.892 227.328 8.629 227.21 6.697H115.436C109.241 6.696 104.22 11.718 104.22 17.912Z" fill="#2A428C"/>
<path d="M289.825 80.305C288.303 80.305 286.843 79.7003 285.766 78.6238C284.69 77.5473 284.085 76.0873 284.085 74.565V33.852C284.085 32.3297 284.69 30.8697 285.766 29.7932C286.843 28.7167 288.303 28.112 289.825 28.112C291.347 28.112 292.807 28.7167 293.884 29.7932C294.96 30.8697 295.565 32.3297 295.565 33.852V74.565C295.565 75.3188 295.417 76.0652 295.128 76.7616C294.84 77.458 294.417 78.0908 293.884 78.6238C293.351 79.1568 292.718 79.5796 292.022 79.8681C291.325 80.1565 290.579 80.305 289.825 80.305Z" fill="#FFE98D"/>
<path d="M313.171 80.305C311.684 80.3069 310.255 79.7298 309.187 78.696L287.143 57.43C286.58 56.8865 286.134 56.2336 285.832 55.5113C285.53 54.7891 285.38 54.0128 285.389 53.2302C285.399 52.4476 285.568 51.6752 285.887 50.9604C286.206 50.2457 286.668 49.6037 287.244 49.074L307.842 30.141C308.397 29.6306 309.047 29.2344 309.755 28.9753C310.462 28.7162 311.214 28.5991 311.968 28.6307C312.721 28.6624 313.46 28.8422 314.144 29.1599C314.828 29.4775 315.442 29.9268 315.952 30.482C316.462 31.0369 316.858 31.6868 317.117 32.3947C317.376 33.1026 317.493 33.8545 317.461 34.6076C317.43 35.3607 317.25 36.1002 316.933 36.7839C316.615 37.4675 316.166 38.0819 315.611 38.592L299.499 53.4L317.156 70.434C317.979 71.2283 318.547 72.2505 318.785 73.3694C319.023 74.4883 318.922 75.653 318.493 76.7138C318.065 77.7746 317.33 78.6833 316.381 79.3232C315.433 79.963 314.315 80.3049 313.171 80.305Z" fill="#FFE98D"/>
<path d="M136.526 58.369C135.004 58.3685 133.544 57.7636 132.468 56.6872C131.391 55.6109 130.787 54.1512 130.786 52.629V33.852C130.786 32.3297 131.391 30.8697 132.467 29.7932C133.544 28.7167 135.004 28.112 136.526 28.112H148.352C156.682 28.112 163.46 34.89 163.46 43.22C163.46 51.55 156.682 58.328 148.352 58.328C145.791 58.328 136.551 58.369 136.551 58.369H136.526ZM142.265 39.592V46.867C144.681 46.858 147.195 46.849 148.351 46.849C150.352 46.849 151.979 45.222 151.979 43.221C151.979 41.22 150.352 39.593 148.351 39.593L142.265 39.592Z" fill="#FFDD40"/>
<path d="M136.526 80.305C135.004 80.3045 133.544 79.6997 132.468 78.6236C131.392 77.5474 130.787 76.088 130.786 74.566V52.599C130.786 51.0767 131.391 49.6167 132.467 48.5402C133.544 47.4637 135.004 46.859 136.526 46.859H150.418C159.626 46.859 167.117 54.35 167.117 63.558C167.117 72.766 159.626 80.256 150.418 80.256C147.422 80.256 136.552 80.305 136.552 80.305H136.526ZM142.265 58.339V68.801C145.385 68.789 148.903 68.777 150.417 68.777C151.801 68.7757 153.127 68.2255 154.106 67.2473C155.084 66.269 155.634 64.9426 155.636 63.559C155.634 62.1753 155.084 60.8488 154.106 59.8704C153.127 58.892 151.801 58.3416 150.417 58.34L142.265 58.339Z" fill="#FFDD40"/>
<path d="M341.226 80.305C334.068 80.305 327.347 77.418 322.785 72.385C321.793 71.2522 321.286 69.7752 321.373 68.2721C321.46 66.769 322.134 65.3602 323.249 64.3492C324.365 63.3382 325.833 62.8059 327.338 62.867C328.842 62.9282 330.262 63.5778 331.292 64.676C333.646 67.275 337.361 68.826 341.226 68.826C345.186 68.826 347.395 66.433 347.698 64.733C348.164 62.119 344.047 60.384 342.775 59.914C338.661 58.3871 334.594 56.7377 330.579 54.968C330.302 54.8449 330.036 54.7001 329.782 54.535C325.275 51.596 322.953 46.443 323.722 41.087C324.538 35.395 328.69 30.762 334.556 28.995C346.017 25.549 355.431 33.311 355.825 33.644C356.402 34.1288 356.878 34.7226 357.226 35.3914C357.573 36.0602 357.786 36.7909 357.851 37.5418C357.916 38.2927 357.832 39.049 357.605 39.7677C357.378 40.4863 357.011 41.1531 356.526 41.73C355.552 42.8901 354.158 43.6178 352.65 43.7544C351.141 43.891 349.64 43.4253 348.473 42.459C348.304 42.325 343.252 38.366 337.867 39.987C335.613 40.666 335.17 42.123 335.085 42.719C335.016 43.203 335.028 44.065 335.784 44.717C337.297 45.379 341.858 47.341 346.748 49.145C357.398 53.072 360.059 60.815 358.999 66.751C357.596 74.604 350.122 80.305 341.226 80.305Z" fill="#FFE98D"/>
<path d="M195.953 80.305C181.564 80.305 169.857 68.599 169.857 54.209C169.857 39.82 181.563 28.112 195.953 28.112C210.343 28.112 222.05 39.819 222.05 54.209C222.05 68.599 210.342 80.305 195.953 80.305ZM195.953 39.592C187.894 39.592 181.336 46.149 181.336 54.209C181.336 62.268 187.893 68.826 195.953 68.826C204.013 68.826 210.57 62.269 210.57 54.209C210.57 46.149 204.013 39.592 195.953 39.592Z" fill="#FFDD40"/>
<path d="M252.847 80.305C238.458 80.305 226.75 68.599 226.75 54.209C226.75 39.82 238.457 28.112 252.847 28.112C267.237 28.112 278.943 39.819 278.943 54.209C278.943 68.599 267.237 80.305 252.847 80.305ZM252.847 39.592C244.787 39.592 238.23 46.149 238.23 54.209C238.23 62.268 244.787 68.826 252.847 68.826C260.906 68.826 267.463 62.269 267.463 54.209C267.464 46.149 260.907 39.592 252.847 39.592Z" fill="#FFE98D"/>
<path d="M462.472 154.083H209.32C210.078 155.106 210.912 156.072 211.814 156.971C211.814 156.971 186.77 189.615 211.814 218.224C211.814 218.224 201.29 228.056 211.814 238.58V416.511H439.082C448.625 404.146 456.965 390.897 463.988 376.946V157.051C463.49 156.058 462.984 155.069 462.472 154.083Z" fill="#FF7186"/>
<path d="M26.011 157.051V376.946C33.0337 390.898 41.3736 404.146 50.917 416.511H213.815V238.58C203.291 228.056 213.815 218.224 213.815 218.224C188.771 189.615 213.815 156.971 213.815 156.971C212.913 156.072 212.079 155.106 211.321 154.083H27.528C27.0152 155.069 26.5095 156.058 26.011 157.051Z" fill="#FF4155"/>
<path d="M432.186 218.224H211.814C211.814 218.224 201.29 228.056 211.814 238.58V506.036L222.067 510.923L222.063 510.928C229.688 511.639 237.342 511.997 245 512C279.421 512 312.179 504.895 341.897 492.08L341.894 492.078L419.948 438.471C426.755 431.535 433.146 424.202 439.087 416.511V225.125C439.087 223.295 438.36 221.539 437.066 220.245C435.772 218.951 434.016 218.224 432.186 218.224Z" fill="#F9A0B1"/>
<path d="M213.814 218.224H57.814C56.9077 218.224 56.0103 218.402 55.1729 218.749C54.3356 219.096 53.5748 219.604 52.934 220.245C52.2931 220.886 51.7848 221.647 51.438 222.484C51.0913 223.321 50.9129 224.219 50.913 225.125V416.511C56.8464 424.192 63.2282 431.516 70.025 438.444L213.814 506.989V238.58C203.291 228.056 213.814 218.224 213.814 218.224Z" fill="#FF7186"/>
<path d="M392.58 145.478C392.58 139.13 397.725 133.985 404.073 133.985H211.814C211.814 133.985 198.944 144.101 211.814 156.971H404.073C397.725 156.971 392.58 151.826 392.58 145.478Z" fill="#FFE98D"/>
<path d="M479.148 145.478C479.148 139.13 474.003 133.985 467.655 133.985H402.073C395.725 133.985 390.58 139.13 390.58 145.478C390.58 151.826 395.725 156.971 402.073 156.971H467.655C474.002 156.971 479.148 151.826 479.148 145.478Z" fill="#FFF6D2"/>
<path d="M213.814 133.985H22.345C15.997 133.985 10.852 139.13 10.852 145.478C10.852 151.826 15.997 156.971 22.345 156.971H213.814C200.945 144.102 213.814 133.985 213.814 133.985Z" fill="#FFDD40"/>
<path d="M78.236 246.832H213.814V334.75H78.236V246.832Z" fill="#73C3F9"/>
<path d="M213.814 293.168V254.49L207.343 246.832H174.659L213.814 293.168ZM158.501 246.832H113.047L187.342 334.75H213.814V312.288L158.501 246.832Z" fill="#9BD8F9"/>
<path d="M78.236 446.463C114.799 480.454 161.751 503.419 213.814 510.033V333.042H78.236V446.463Z" fill="#2A428C"/>
<path d="M144.673 333.042C151.725 336.37 156.617 343.525 156.617 351.84V483.141C156.617 487.282 155.421 491.091 153.387 494.289C172.769 502.112 193.079 507.404 213.815 510.034V333.042H144.673Z" fill="#1C2E7A"/>
<path d="M411.351 399.86C407.3 399.441 404.8 395.693 404.798 395.693C404.6 395.361 384.736 362.091 366.623 328.222C332.317 264.07 336.04 257.073 337.135 256.321C341.214 253.522 343.266 250.384 343.236 246.992C343.201 243.197 340.51 240.179 338.705 238.58H247.112C244.923 238.58 242.824 239.45 241.276 240.997C239.729 242.545 238.859 244.644 238.859 246.833V483.826C238.859 486.015 239.729 488.114 241.276 489.662C242.824 491.209 244.923 492.079 247.112 492.079H341.895C352.852 487.354 363.449 481.832 373.599 475.558L403.402 453.879C409.175 448.985 414.719 443.829 420.017 438.425V396.058C417.003 398.851 414.092 400.143 411.351 399.86Z" fill="#3C58A0"/>
<path d="M336.286 255.085C347.868 264.411 403.511 396.463 403.511 396.463C403.511 396.463 409.92 406.392 420.016 398.059V246.833C420.016 245.749 419.803 244.676 419.388 243.675C418.974 242.673 418.366 241.764 417.599 240.997C416.833 240.231 415.923 239.623 414.922 239.208C413.921 238.793 412.848 238.58 411.764 238.58H336.286C336.286 238.58 326.4 247.125 336.286 255.085Z" fill="#4F71B6"/>
<path d="M94.741 405.612C92.5522 405.612 90.453 404.743 88.9053 403.195C87.3575 401.647 86.488 399.548 86.488 397.359V373.364C86.488 371.175 87.3575 369.076 88.9053 367.528C90.453 365.981 92.5522 365.111 94.741 365.111C96.9298 365.111 99.029 365.981 100.577 367.528C102.124 369.076 102.994 371.175 102.994 373.364V397.359C102.994 399.548 102.124 401.647 100.577 403.195C99.029 404.743 96.9298 405.612 94.741 405.612Z" fill="#6289CC"/>
<path d="M255.364 255.085V475.573H269.357C269.357 475.573 307.519 470.696 370.923 474.314L389.509 464.842C394.308 461.331 398.979 457.648 403.511 453.799V255.086L255.364 255.085Z" fill="#9BD8F9"/>
<path d="M374.094 460.575H284.822V289.835H374.094V460.575Z" fill="#49B1F7"/>
<path d="M374.093 460.575H338.229V289.835H374.093V460.575Z" fill="#1E9EF4"/>
<path d="M301.691 368.001H286.008C285.694 368 285.393 367.875 285.171 367.652C284.948 367.43 284.823 367.129 284.822 366.815V313.768C284.823 313.454 284.948 313.153 285.171 312.931C285.393 312.708 285.694 312.583 286.008 312.582H301.691C302.005 312.583 302.306 312.708 302.528 312.931C302.751 313.153 302.876 313.454 302.877 313.768V366.815C302.876 367.129 302.751 367.43 302.528 367.652C302.306 367.875 302.005 368 301.691 368.001Z" fill="#FF7186"/>
<path d="M319.493 368.001H303.81C303.496 368 303.195 367.875 302.973 367.652C302.75 367.43 302.625 367.129 302.624 366.815V313.768C302.625 313.454 302.75 313.153 302.973 312.931C303.195 312.708 303.496 312.583 303.81 312.582H319.493C319.807 312.583 320.108 312.708 320.33 312.931C320.553 313.153 320.678 313.454 320.679 313.768V366.815C320.678 367.129 320.553 367.43 320.331 367.653C320.109 367.875 319.807 368 319.493 368.001Z" fill="#FFDD40"/>
<path d="M337.296 368.001H321.613C321.299 368 320.998 367.875 320.776 367.652C320.553 367.43 320.428 367.129 320.427 366.815V313.768C320.428 313.454 320.553 313.153 320.776 312.931C320.998 312.708 321.299 312.583 321.613 312.582H337.296C337.61 312.583 337.911 312.708 338.133 312.931C338.356 313.153 338.481 313.454 338.482 313.768V366.815C338.481 367.129 338.356 367.43 338.133 367.652C337.911 367.875 337.61 368 337.296 368.001Z" fill="#73C3F9"/>
<path d="M355.099 368.001H339.416C339.102 368 338.801 367.875 338.579 367.652C338.356 367.43 338.231 367.129 338.23 366.815V313.768C338.231 313.454 338.356 313.153 338.579 312.931C338.801 312.708 339.102 312.583 339.416 312.582H355.099C355.413 312.583 355.714 312.708 355.936 312.931C356.159 313.153 356.284 313.454 356.285 313.768V366.815C356.284 367.129 356.159 367.43 355.936 367.652C355.714 367.875 355.413 368 355.099 368.001Z" fill="#88CE65"/>
<path d="M372.902 368.001H357.219C356.905 368 356.604 367.875 356.382 367.652C356.159 367.43 356.034 367.129 356.033 366.815V313.768C356.034 313.454 356.159 313.153 356.382 312.931C356.604 312.708 356.905 312.583 357.219 312.582H372.902C373.216 312.583 373.517 312.708 373.739 312.931C373.962 313.153 374.087 313.454 374.088 313.768V366.815C374.087 367.129 373.962 367.43 373.739 367.652C373.517 367.875 373.216 368 372.902 368.001Z" fill="#FF7186"/>
<path d="M301.691 460.575H286.008C285.694 460.574 285.393 460.449 285.171 460.226C284.948 460.004 284.823 459.703 284.822 459.389V406.342C284.823 406.028 284.948 405.727 285.171 405.505C285.393 405.282 285.694 405.157 286.008 405.156H301.691C302.005 405.157 302.306 405.282 302.528 405.505C302.751 405.727 302.876 406.028 302.877 406.342V459.389C302.876 459.703 302.751 460.004 302.528 460.226C302.306 460.449 302.005 460.574 301.691 460.575Z" fill="#FFDD40"/>
<path d="M319.493 460.575H303.81C303.496 460.574 303.195 460.449 302.973 460.226C302.75 460.004 302.625 459.703 302.624 459.389V406.342C302.625 406.028 302.75 405.727 302.973 405.505C303.195 405.282 303.496 405.157 303.81 405.156H319.493C319.807 405.157 320.108 405.282 320.33 405.505C320.553 405.727 320.678 406.028 320.679 406.342V459.389C320.678 459.703 320.553 460.004 320.331 460.227C320.109 460.449 319.807 460.574 319.493 460.575Z" fill="#FF7186"/>
<path d="M337.296 460.575H321.613C321.299 460.574 320.998 460.449 320.776 460.226C320.553 460.004 320.428 459.703 320.427 459.389V406.342C320.428 406.028 320.553 405.727 320.776 405.505C320.998 405.282 321.299 405.157 321.613 405.156H337.296C337.61 405.157 337.911 405.282 338.133 405.505C338.356 405.727 338.481 406.028 338.482 406.342V459.389C338.481 459.703 338.356 460.004 338.133 460.226C337.911 460.449 337.61 460.574 337.296 460.575Z" fill="#88CE65"/>
<path d="M355.099 460.575H339.416C339.102 460.574 338.801 460.449 338.579 460.226C338.356 460.004 338.231 459.703 338.23 459.389V406.342C338.231 406.028 338.356 405.727 338.579 405.505C338.801 405.282 339.102 405.157 339.416 405.156H355.099C355.413 405.157 355.714 405.282 355.936 405.505C356.159 405.727 356.284 406.028 356.285 406.342V459.389C356.284 459.703 356.159 460.004 355.936 460.226C355.714 460.449 355.413 460.574 355.099 460.575Z" fill="#FFDD40"/>
<path d="M372.902 460.575H357.219C356.905 460.574 356.604 460.449 356.382 460.226C356.159 460.004 356.034 459.703 356.033 459.389V406.342C356.034 406.028 356.159 405.727 356.382 405.505C356.604 405.282 356.905 405.157 357.219 405.156H372.902C373.216 405.157 373.517 405.282 373.739 405.505C373.962 405.727 374.087 406.028 374.088 406.342V459.389C374.087 459.703 373.962 460.004 373.739 460.226C373.517 460.449 373.216 460.574 372.902 460.575Z" fill="#FF7186"/>
<path d="M346.026 282.095V281.577C346.026 279.524 345.211 277.556 343.759 276.104C342.307 274.652 340.339 273.837 338.286 273.837H284.821V289.835H338.286C340.339 289.835 342.307 289.02 343.759 287.568C345.211 286.116 346.026 284.148 346.026 282.095ZM346.026 375.087V374.569C346.026 372.516 345.211 370.548 343.759 369.096C342.307 367.644 340.339 366.829 338.286 366.829H284.821V382.827H338.286C340.339 382.827 342.307 382.012 343.759 380.56C345.211 379.108 346.026 377.14 346.026 375.087ZM346.026 467.833V467.315C346.026 465.262 345.211 463.294 343.759 461.842C342.307 460.39 340.339 459.575 338.286 459.575H284.821V475.573H338.286C340.339 475.573 342.307 474.758 343.759 473.306C345.211 471.854 346.026 469.886 346.026 467.833Z" fill="#D3DCFB"/>
<path d="M336.286 273.837C338.339 273.837 340.307 274.652 341.759 276.104C343.211 277.556 344.026 279.524 344.026 281.577V282.095C344.026 284.148 343.211 286.116 341.759 287.568C340.307 289.02 338.339 289.835 336.286 289.835H374.094V273.837H336.286ZM336.286 366.829C338.339 366.829 340.307 367.644 341.759 369.096C343.211 370.548 344.026 372.516 344.026 374.569V375.087C344.026 377.14 343.211 379.108 341.759 380.56C340.307 382.012 338.339 382.827 336.286 382.827H374.094V366.829H336.286ZM336.286 459.575C338.339 459.575 340.307 460.39 341.759 461.842C343.211 463.294 344.026 465.262 344.026 467.315V467.833C344.026 469.886 343.211 471.854 341.759 473.306C340.307 474.758 338.339 475.573 336.286 475.573H373.576L374.094 475.25V459.575H336.286Z" fill="#BEC8F7"/>
<path d="M282.23 269.625H272.482C271.653 269.625 270.858 269.954 270.272 270.54C269.686 271.126 269.357 271.921 269.357 272.75V475.573H285.355V272.75C285.355 271.921 285.026 271.126 284.44 270.54C283.854 269.954 283.059 269.625 282.23 269.625ZM386.393 269.625H376.645C375.816 269.625 375.021 269.954 374.435 270.54C373.849 271.126 373.52 271.921 373.52 272.75V475.573H373.576C379.028 472.204 384.346 468.622 389.518 464.837V272.75C389.518 272.34 389.437 271.933 389.28 271.554C389.123 271.175 388.893 270.83 388.603 270.54C388.313 270.25 387.968 270.02 387.589 269.863C387.21 269.706 386.803 269.625 386.393 269.625Z" fill="#E9EFFF"/>
<path d="M374.564 0H228.452C227.032 1.167 221.715 6.332 228.775 13.393H374.564C375.762 13.3941 376.911 13.8705 377.759 14.7177C378.606 15.5649 379.083 16.7137 379.084 17.912V90.506C379.083 91.7043 378.606 92.8531 377.759 93.7003C376.911 94.5475 375.762 95.0239 374.564 95.025H227.503C227.098 95.46 221.178 102.04 227.447 108.418H374.564C384.441 108.418 392.477 100.383 392.477 90.507V17.911C392.477 8.035 384.441 0 374.564 0Z" fill="#6289CC"/>
<path d="M229.503 95.024H115.436C114.238 95.0229 113.089 94.5465 112.241 93.6993C111.394 92.8521 110.917 91.7033 110.916 90.505V17.911C110.918 16.7128 111.394 15.5641 112.242 14.717C113.089 13.8698 114.238 13.3933 115.436 13.392H230.775C223.715 6.332 229.032 1.166 230.452 -0.001H115.436C105.559 -0.001 97.524 8.034 97.524 17.91V90.504C97.524 100.38 105.559 108.415 115.436 108.415H229.447C223.178 102.039 229.098 95.459 229.503 95.024Z" fill="#4F71B6"/>
<path d="M164.442 238.58H78.236C76.0472 238.58 73.948 239.45 72.4002 240.997C70.8525 242.545 69.983 244.644 69.983 246.833V438.425C75.2472 443.799 80.7546 448.929 86.488 453.799V255.085H164.441V238.58H164.442ZM205.562 390.625V508.825C211.038 509.711 216.543 510.411 222.067 510.923V390.625H205.562Z" fill="#3C58A0"/>
<path d="M213.814 238.58H163.43C163.43 238.58 154.634 246.289 163.43 255.085H205.561V392.25C205.561 392.25 212.587 401.729 222.066 392.25V246.833C222.066 245.749 221.853 244.676 221.439 243.674C221.024 242.673 220.416 241.763 219.65 240.997C218.884 240.23 217.974 239.622 216.972 239.208C215.971 238.793 214.898 238.58 213.814 238.58Z" fill="#4F71B6"/>
</svg>
