<svg width="512" height="512" viewBox="0 0 512 512" fill="none" xmlns="http://www.w3.org/2000/svg">
<path d="M368.081 468.996H48.224C40.621 468.996 34.458 462.833 34.458 455.23V13.766C34.458 6.163 40.621 0 48.224 0H368.082C375.685 0 381.848 6.163 381.848 13.766V455.231C381.847 462.833 375.684 468.996 368.081 468.996Z" fill="#F2FBFF"/>
<path d="M368.081 0H328.324C335.927 0 342.09 6.163 342.09 13.766V455.231C342.09 462.834 335.927 468.997 328.324 468.997H368.081C375.684 468.997 381.847 462.834 381.847 455.231V13.766C381.847 6.163 375.684 0 368.081 0Z" fill="#DFF6FD"/>
<path d="M301.513 448.695H62.485C60.436 448.695 58.4708 447.881 57.0219 446.432C55.573 444.983 54.759 443.018 54.759 440.969C54.759 438.92 55.573 436.955 57.0219 435.506C58.4708 434.057 60.436 433.243 62.485 433.243H301.513C303.562 433.243 305.527 434.057 306.976 435.506C308.425 436.955 309.239 438.92 309.239 440.969C309.239 443.018 308.425 444.983 306.976 446.432C305.527 447.881 303.562 448.695 301.513 448.695ZM349.811 290.81C349.81 292.859 348.996 294.823 347.547 296.272C346.099 297.721 344.134 298.535 342.085 298.536H62.483C60.4343 298.535 58.4698 297.721 57.0211 296.272C55.5724 294.823 54.7581 292.859 54.757 290.81C54.7578 288.761 55.5721 286.796 57.0208 285.348C58.4695 283.899 60.4342 283.085 62.483 283.084H342.084C344.133 283.084 346.098 283.898 347.547 285.347C348.996 286.796 349.811 288.761 349.811 290.81Z" fill="#8EBAC5"/>
<path d="M360.628 290.81C360.627 292.859 359.813 294.823 358.364 296.272C356.915 297.721 354.951 298.535 352.902 298.536H342.085V283.083H352.902C354.951 283.084 356.916 283.899 358.364 285.347C359.813 286.796 360.627 288.761 360.628 290.81Z" fill="#7CA1B1"/>
<path d="M346.525 332.79V400.658C346.525 401.836 346.057 402.965 345.225 403.798C344.392 404.63 343.263 405.098 342.085 405.098H153.294C152.116 405.098 150.987 404.63 150.154 403.798C149.322 402.965 148.854 401.836 148.854 400.658V332.79C148.854 331.612 149.322 330.483 150.154 329.65C150.987 328.818 152.116 328.35 153.294 328.35H342.085C343.263 328.35 344.392 328.818 345.225 329.65C346.057 330.483 346.525 331.612 346.525 332.79Z" fill="#DFF6FD"/>
<path d="M352.211 332.79V400.658C352.211 401.836 351.743 402.965 350.911 403.798C350.078 404.63 348.949 405.098 347.771 405.098H342.084V328.35H347.771C348.949 328.35 350.078 328.818 350.911 329.65C351.743 330.483 352.211 331.612 352.211 332.79Z" fill="#C8EFFE"/>
<path d="M462.181 431.666C462.181 476.033 426.214 512 381.847 512C337.48 512 301.513 476.033 301.513 431.666C301.513 395.618 326.176 364.854 358.878 354.683L383.976 356.741C383.976 356.741 462.181 387.299 462.181 431.666Z" fill="#FEE97D"/>
<path d="M381.847 351.332C374.069 351.331 366.332 352.46 358.878 354.683C392.049 364.567 416.243 395.284 416.243 431.666C416.243 468.049 392.05 498.766 358.878 508.649C366.332 510.872 374.069 512.001 381.847 512C426.214 512 462.181 476.033 462.181 431.666C462.181 387.299 426.214 351.332 381.847 351.332Z" fill="#FEE45A"/>
<path d="M389.576 371.916C387.014 371.585 384.433 371.42 381.85 371.422C348.627 371.422 321.605 398.444 321.605 431.667C321.605 464.89 348.627 491.912 381.85 491.912C384.467 491.912 387.042 491.747 389.576 491.418C418.711 480.887 435.244 462.274 435.244 431.668C435.244 401.062 420.448 385.462 389.576 371.916ZM407.326 468.485C399.85 473.688 390.958 476.471 381.85 476.459C357.146 476.459 337.058 456.37 337.058 431.667C337.058 406.963 357.147 386.875 381.85 386.875C390.958 386.863 399.85 389.646 407.326 394.849C419.581 399.091 430.893 416.421 430.893 431.668C430.893 446.915 419.871 464.352 407.326 468.485Z" fill="#FFF8BF"/>
<path d="M442.095 431.667C442.095 462.274 419.153 487.616 389.576 491.417C396.833 484.911 402.847 477.141 407.326 468.485C418.988 460.398 426.642 446.913 426.642 431.666C426.642 416.419 418.988 402.934 407.326 394.847C402.847 386.191 396.832 378.421 389.576 371.915C419.153 375.717 442.095 401.06 442.095 431.667Z" fill="#FCF2A9"/>
<path d="M376.577 445.003C375.049 445.004 373.554 444.551 372.283 443.702C371.012 442.853 370.022 441.646 369.437 440.234C368.852 438.822 368.699 437.268 368.998 435.769C369.296 434.27 370.033 432.893 371.114 431.813L382.334 420.593C383.79 419.178 385.744 418.393 387.774 418.408C389.804 418.422 391.747 419.235 393.183 420.67C394.618 422.106 395.431 424.049 395.446 426.079C395.46 428.109 394.676 430.063 393.261 431.519L382.041 442.739C381.324 443.458 380.473 444.028 379.535 444.417C378.597 444.805 377.592 445.004 376.577 445.003Z" fill="#FFF8BF"/>
<path d="M99.106 359.086C93.535 357.117 87.387 354.749 84.027 352.113C83.451 351.66 83.038 350.298 83.364 348.57C83.522 347.729 84.256 344.92 87.044 344.081C93.018 342.279 96.819 345.28 97.232 345.629L98.17 346.29C99.6932 347.363 101.555 347.846 103.407 347.649C105.26 347.452 106.978 346.589 108.242 345.219C111.49 341.697 110.786 336.044 106.712 333.522C103.684 331.647 100.661 330.183 97.566 329.252V327.549C97.566 326.534 97.3661 325.53 96.9779 324.592C96.5896 323.655 96.0205 322.803 95.3031 322.086C94.5857 321.368 93.734 320.799 92.7966 320.411C91.8592 320.023 90.8546 319.823 89.84 319.823C88.8254 319.823 87.8207 320.023 86.8834 320.411C85.946 320.799 85.0943 321.368 84.3769 322.086C83.6594 322.803 83.0904 323.655 82.7021 324.592C82.3138 325.53 82.114 326.534 82.114 327.549V329.445C74.957 331.796 69.637 337.977 68.18 345.707C66.801 353.023 69.22 360.137 74.493 364.271C79.598 368.275 86.866 371.147 93.959 373.654C99.087 375.467 99.241 379.375 98.876 381.544C98.255 385.238 95.148 389.23 89.792 389.265C83.89 389.307 82.355 389.062 77.966 386.19C77.0512 385.592 76.0198 385.194 74.9401 385.023C73.8603 384.853 72.7566 384.914 71.7019 385.201C70.6473 385.489 69.6656 385.997 68.8219 386.692C67.9781 387.387 67.2913 388.253 66.807 389.233C65.023 392.808 66.457 397.155 69.814 399.322C74.457 402.319 78.03 403.705 82.115 404.305V405.894C82.115 407.943 82.929 409.908 84.3779 411.357C85.8268 412.806 87.7919 413.62 89.841 413.62C91.89 413.62 93.8552 412.806 95.3041 411.357C96.753 409.908 97.567 407.943 97.567 405.894V403.484C106.829 400.441 112.751 392.222 114.115 384.107C115.984 372.975 109.953 362.92 99.106 359.086Z" fill="#FEE45A"/>
<path d="M345.556 178.19C345.556 179.468 345.239 180.727 344.633 181.852C344.027 182.978 343.151 183.936 342.084 184.639C340.822 185.474 339.342 185.918 337.829 185.916H148.864C147.849 185.916 146.844 185.717 145.907 185.329C144.969 184.941 144.118 184.372 143.4 183.654C142.683 182.937 142.113 182.085 141.725 181.147C141.337 180.21 141.138 179.205 141.138 178.19C141.138 177.175 141.337 176.17 141.725 175.233C142.113 174.295 142.682 173.443 143.4 172.726C144.117 172.008 144.969 171.439 145.907 171.051C146.844 170.663 147.849 170.464 148.864 170.464H337.83C339.879 170.464 341.844 171.278 343.293 172.727C344.742 174.176 345.556 176.141 345.556 178.19ZM314.532 224.288H148.86C146.811 224.288 144.846 223.474 143.397 222.025C141.948 220.576 141.134 218.611 141.134 216.562C141.134 214.513 141.948 212.548 143.397 211.099C144.846 209.65 146.811 208.836 148.86 208.836H314.533C315.548 208.836 316.552 209.036 317.49 209.424C318.427 209.813 319.279 210.382 319.996 211.099C320.713 211.817 321.282 212.669 321.671 213.606C322.059 214.543 322.259 215.548 322.259 216.563C322.258 217.577 322.059 218.582 321.67 219.519C321.282 220.456 320.713 221.308 319.995 222.026C319.278 222.743 318.426 223.312 317.489 223.7C316.551 224.088 315.547 224.288 314.532 224.288ZM300.586 262.661H148.86C147.845 262.661 146.841 262.461 145.903 262.073C144.966 261.685 144.114 261.116 143.397 260.398C142.68 259.681 142.11 258.829 141.722 257.892C141.334 256.954 141.134 255.95 141.134 254.935C141.134 253.92 141.334 252.916 141.722 251.978C142.11 251.041 142.68 250.189 143.397 249.472C144.114 248.755 144.966 248.185 145.903 247.797C146.841 247.409 147.845 247.209 148.86 247.209H300.586C301.601 247.209 302.605 247.409 303.543 247.797C304.48 248.185 305.332 248.755 306.049 249.472C306.767 250.189 307.336 251.041 307.724 251.978C308.112 252.916 308.312 253.92 308.312 254.935C308.312 255.95 308.112 256.954 307.724 257.892C307.336 258.829 306.767 259.681 306.049 260.398C305.332 261.116 304.48 261.685 303.543 262.073C302.605 262.461 301.601 262.661 300.586 262.661ZM349.811 140.651C349.81 142.7 348.996 144.665 347.547 146.113C346.099 147.562 344.134 148.376 342.085 148.377H61.566C59.5173 148.376 57.5528 147.562 56.1041 146.113C54.6554 144.664 53.8411 142.7 53.84 140.651C53.8395 139.636 54.039 138.631 54.4271 137.694C54.8151 136.756 55.3842 135.904 56.1017 135.187C56.8193 134.469 57.6712 133.9 58.6088 133.512C59.5464 133.124 60.5513 132.925 61.566 132.925H342.084C343.099 132.924 344.104 133.124 345.042 133.512C345.979 133.899 346.832 134.469 347.549 135.186C348.267 135.904 348.836 136.756 349.224 137.693C349.612 138.631 349.812 139.636 349.811 140.651Z" fill="#8EBAC5"/>
<path d="M345.556 178.19C345.556 179.468 345.239 180.727 344.633 181.852C344.027 182.978 343.151 183.935 342.084 184.639V171.741C343.151 172.445 344.027 173.402 344.633 174.528C345.239 175.653 345.556 176.912 345.556 178.19ZM353.355 140.651C353.354 142.7 352.54 144.664 351.091 146.113C349.642 147.562 347.678 148.376 345.629 148.377H342.085V132.924H345.629C346.644 132.924 347.649 133.123 348.586 133.511C349.524 133.9 350.376 134.469 351.093 135.186C351.811 135.904 352.38 136.756 352.768 137.694C353.156 138.631 353.356 139.636 353.355 140.651Z" fill="#7CA1B1"/>
<path d="M252.713 25.637H252.637C251.622 25.6468 250.62 25.8564 249.686 26.2537C248.752 26.6511 247.906 27.2284 247.196 27.9528C246.485 28.6772 245.924 29.5345 245.545 30.4756C245.166 31.4168 244.976 32.4234 244.986 33.438L245.508 87.39L205.267 29.119C204.331 27.7632 202.986 26.7421 201.429 26.2048C199.871 25.6675 198.183 25.6422 196.61 26.1324C195.037 26.6227 193.662 27.6029 192.686 28.93C191.709 30.2571 191.183 31.8615 191.183 33.509V111.181C191.183 113.23 191.997 115.195 193.446 116.644C194.895 118.093 196.86 118.907 198.909 118.907C200.958 118.907 202.923 118.093 204.372 116.644C205.821 115.195 206.635 113.23 206.635 111.181V58.294L245.07 113.95C247.42 117.343 251.305 118.795 254.975 117.652C258.735 116.477 261.165 112.908 261.164 108.484L260.437 33.289C260.418 31.2531 259.596 29.307 258.149 27.8741C256.703 26.4412 254.749 25.6372 252.713 25.637ZM158.698 25.637C156.649 25.637 154.684 26.451 153.235 27.8999C151.786 29.3488 150.972 31.314 150.972 33.363V111.181C150.972 113.23 151.786 115.195 153.235 116.644C154.684 118.093 156.649 118.907 158.698 118.907C160.747 118.907 162.712 118.093 164.161 116.644C165.61 115.195 166.424 113.23 166.424 111.181V33.363C166.424 32.3484 166.224 31.3437 165.836 30.4063C165.448 29.4688 164.879 28.6171 164.161 27.8996C163.444 27.1822 162.592 26.6131 161.655 26.2249C160.717 25.8366 159.713 25.6369 158.698 25.637ZM121.535 25.637H90.227C88.1779 25.637 86.2128 26.451 84.7639 27.8999C83.315 29.3488 82.501 31.314 82.501 33.363V110.61C82.501 112.659 83.315 114.624 84.7639 116.073C86.2128 117.522 88.1779 118.336 90.227 118.336C92.276 118.336 94.2412 117.522 95.6901 116.073C97.139 114.624 97.953 112.659 97.953 110.61V78.982H119.048C121.097 78.982 123.062 78.168 124.511 76.7191C125.96 75.2702 126.774 73.3051 126.774 71.256C126.774 69.207 125.96 67.2418 124.511 65.7929C123.062 64.344 121.097 63.53 119.048 63.53H97.953V41.09H121.535C123.569 41.0669 125.512 40.2427 126.942 38.7962C128.372 37.3497 129.174 35.3976 129.174 33.3635C129.174 31.3294 128.372 29.3774 126.942 27.9309C125.512 26.4844 123.569 25.6602 121.535 25.637ZM326.078 102.743H301.315V79.643H323.683C325.732 79.643 327.697 78.829 329.146 77.3801C330.595 75.9312 331.409 73.9661 331.409 71.917C331.409 69.868 330.595 67.9028 329.146 66.4539C327.697 65.005 325.732 64.191 323.683 64.191H301.315V41.09H326.078C328.127 41.09 330.092 40.276 331.541 38.8271C332.99 37.3782 333.804 35.4131 333.804 33.364C333.804 31.315 332.99 29.3498 331.541 27.9009C330.092 26.452 328.127 25.638 326.078 25.638H293.589C291.54 25.638 289.575 26.452 288.126 27.9009C286.677 29.3498 285.863 31.315 285.863 33.364V110.471C285.863 111.486 286.063 112.49 286.451 113.428C286.839 114.365 287.408 115.217 288.126 115.934C288.843 116.652 289.695 117.221 290.632 117.609C291.57 117.997 292.574 118.197 293.589 118.197H326.078C328.106 118.164 330.039 117.336 331.462 115.89C332.884 114.445 333.682 112.498 333.682 110.47C333.682 108.442 332.884 106.495 331.462 105.05C330.039 103.604 328.106 102.776 326.078 102.743Z" fill="#FE99A0"/>
<path d="M422.008 262.661H300.586C289.288 262.661 282.385 250.25 288.345 240.652L361.297 123.162L457.232 240.652C463.191 250.25 433.306 262.661 422.008 262.661Z" fill="#FEE97D"/>
<path d="M475.351 240.652L394.089 109.778C388.453 100.701 375.244 100.701 369.607 109.778L361.296 123.162L434.248 240.652C440.208 250.25 433.305 262.661 422.007 262.661H463.11C474.409 262.661 481.311 250.25 475.351 240.652Z" fill="#FEE45A"/>
<path d="M390.177 169.681V199.098C390.177 203.518 386.598 207.086 382.189 207.086C377.78 207.086 374.201 203.518 374.201 199.098V151.799C374.201 149.903 374.861 148.178 375.969 146.804L383.073 147.375C383.073 147.374 390.149 168.867 390.177 169.681Z" fill="#FE99A0"/>
<path d="M390.177 151.798V169.68L375.969 146.802C376.715 145.868 377.661 145.114 378.738 144.596C379.814 144.078 380.994 143.809 382.189 143.809C384.307 143.81 386.338 144.652 387.836 146.15C389.334 147.648 390.176 149.68 390.177 151.798Z" fill="#FD8087"/>
<path d="M382.189 238.174C386.601 238.174 390.177 234.598 390.177 230.186C390.177 225.774 386.601 222.198 382.189 222.198C377.777 222.198 374.201 225.774 374.201 230.186C374.201 234.598 377.777 238.174 382.189 238.174Z" fill="#FE99A0"/>
<path d="M89.838 185.915C94.1049 185.915 97.564 182.456 97.564 178.189C97.564 173.922 94.1049 170.463 89.838 170.463C85.571 170.463 82.112 173.922 82.112 178.189C82.112 182.456 85.571 185.915 89.838 185.915Z" fill="#7CA1B1"/>
<path d="M89.838 224.287C94.1049 224.287 97.564 220.828 97.564 216.561C97.564 212.294 94.1049 208.835 89.838 208.835C85.571 208.835 82.112 212.294 82.112 216.561C82.112 220.828 85.571 224.287 89.838 224.287Z" fill="#7CA1B1"/>
<path d="M89.838 262.66C94.1049 262.66 97.564 259.201 97.564 254.934C97.564 250.667 94.1049 247.208 89.838 247.208C85.571 247.208 82.112 250.667 82.112 254.934C82.112 259.201 85.571 262.66 89.838 262.66Z" fill="#7CA1B1"/>
</svg>
