<svg width="512" height="512" viewBox="0 0 512 512" fill="none" xmlns="http://www.w3.org/2000/svg">
<path d="M464 496C472.487 496 480.626 492.629 486.627 486.627C492.629 480.626 496 472.487 496 464V128C496 119.513 492.629 111.374 486.627 105.373C480.626 99.3714 472.487 96 464 96H360V496H464Z" fill="#E56B10"/>
<path d="M480 448V165.496C480 147.065 472.678 129.388 459.645 116.355C446.612 103.322 428.935 96 410.504 96H360V480H448C456.487 480 464.626 476.629 470.627 470.627C476.629 464.626 480 456.487 480 448Z" fill="#EC8329"/>
<path d="M112 16H400V272H112V16Z" fill="#C1CFE8"/>
<path d="M48 272V136L136 64H320V272H48Z" fill="#E4EAF4"/>
<path d="M320 104H368V120H320V104ZM320 136H368V152H320V136ZM320 168H368V184H320V168Z" fill="#004C9D"/>
<path d="M48 136H136V64L48 136Z" fill="#95AFD1"/>
<path d="M192 112H288V128H192V112ZM160 144H288V160H160V144Z" fill="#0059BE"/>
<path d="M432 272C432 263.513 428.629 255.374 422.627 249.373C416.626 243.371 408.487 240 400 240H296C291.391 240 286.907 238.498 283.228 235.722C279.549 232.947 276.874 229.048 275.608 224.616L268.408 199.384C267.142 194.95 264.464 191.049 260.782 188.273C257.099 185.497 252.612 183.997 248 184H56C45.3913 184 35.2172 188.214 27.7157 195.716C20.2143 203.217 16 213.391 16 224V464C16 472.487 19.3714 480.626 25.3726 486.627C31.3737 492.629 39.5131 496 48 496H464C455.513 496 447.374 492.629 441.373 486.627C435.371 480.626 432 472.487 432 464V272Z" fill="#FFA617"/>
<path d="M320 200H368V216H320V200Z" fill="#004C9D"/>
<path d="M432 272C432 263.513 428.629 255.374 422.627 249.373C416.626 243.371 408.487 240 400 240H296C291.391 240 286.907 238.498 283.228 235.722C279.549 232.947 276.874 229.048 275.608 224.616L268.408 199.384C267.142 194.95 264.464 191.049 260.782 188.273C257.099 185.497 252.612 183.997 248 184H56C51.3898 184.042 46.8225 184.89 42.504 186.504C40.8896 190.822 40.0422 195.39 40 200V440C40 448.487 43.3714 456.626 49.3726 462.627C55.3737 468.629 63.5131 472 72 472H433.128C432.414 469.392 432.035 466.704 432 464V272Z" fill="#FCB732"/>
<path d="M176 368L232 424L200 456L144 400L88 456L56 424L112 368L56 312L88 280L144 336L200 280L232 312L176 368Z" fill="#C91123"/>
<path d="M192 112H288V128H192V112ZM160 144H288V160H160V144Z" fill="black"/>
<path d="M464 88H408V16C408 13.8783 407.157 11.8434 405.657 10.3431C404.157 8.84285 402.122 8 400 8H112C109.878 8 107.843 8.84285 106.343 10.3431C104.843 11.8434 104 13.8783 104 16V79.848L42.936 129.808C42.0185 130.558 41.2792 131.503 40.7714 132.574C40.2637 133.645 40.0002 134.815 40 136V178.8C30.6504 182.106 22.5541 188.226 16.824 196.32C11.0939 204.413 8.01133 214.083 8 224V464C8.0127 474.605 12.2311 484.772 19.7298 492.27C27.2285 499.769 37.3952 503.987 48 504H464C474.605 503.987 484.772 499.769 492.27 492.27C499.769 484.772 503.987 474.605 504 464V128C504 117.391 499.786 107.217 492.284 99.7157C484.783 92.2143 474.609 88 464 88ZM120 24H392V232H328V216H368V200H328V184H368V168H328V152H368V136H328V120H368V104H328V64C328 61.8783 327.157 59.8434 325.657 58.3431C324.157 56.8429 322.122 56 320 56H136C134.154 56.0003 132.365 56.6391 130.936 57.808L120 66.76V24ZM128 80.888V128H70.4L128 80.888ZM56 144H136C138.122 144 140.157 143.157 141.657 141.657C143.157 140.157 144 138.122 144 136V72H312V232H296C293.129 231.989 290.339 231.048 288.048 229.317C285.758 227.586 284.09 225.159 283.296 222.4L276.096 197.16C274.326 191.072 270.633 185.72 265.568 181.906C260.504 178.091 254.34 176.019 248 176H56V144ZM48 488C41.6348 488 35.5303 485.471 31.0294 480.971C26.5286 476.47 24 470.365 24 464V224C24 215.513 27.3714 207.374 33.3726 201.373C39.3737 195.371 47.5131 192 56 192H248C250.871 192.011 253.661 192.952 255.952 194.683C258.242 196.414 259.91 198.841 260.704 201.6L267.904 226.84C269.674 232.928 273.367 238.28 278.432 242.094C283.496 245.909 289.66 247.981 296 248H400C406.365 248 412.47 250.529 416.971 255.029C421.471 259.53 424 265.635 424 272V464C423.984 472.657 426.793 481.084 432 488H48ZM488 464C488 470.365 485.471 476.47 480.971 480.971C476.47 485.471 470.365 488 464 488C457.635 488 451.53 485.471 447.029 480.971C442.529 476.47 440 470.365 440 464V272C439.988 262.782 436.799 253.851 430.97 246.71C425.141 239.569 417.029 234.657 408 232.8V104H464C470.365 104 476.47 106.529 480.971 111.029C485.471 115.53 488 121.635 488 128V464Z" fill="black"/>
<path d="M237.656 306.344L205.656 274.344C204.156 272.844 202.121 272.002 200 272.002C197.879 272.002 195.844 272.844 194.344 274.344L144 324.688L93.656 274.344C92.1558 272.844 90.1213 272.002 88 272.002C85.8787 272.002 83.8442 272.844 82.344 274.344L50.344 306.344C48.8442 307.844 48.0017 309.879 48.0017 312C48.0017 314.121 48.8442 316.156 50.344 317.656L100.688 368L50.344 418.344C48.8442 419.844 48.0017 421.879 48.0017 424C48.0017 426.121 48.8442 428.156 50.344 429.656L82.344 461.656C83.8442 463.156 85.8787 463.998 88 463.998C90.1213 463.998 92.1558 463.156 93.656 461.656L144 411.312L194.344 461.656C195.844 463.156 197.879 463.998 200 463.998C202.121 463.998 204.156 463.156 205.656 461.656L237.656 429.656C239.156 428.156 239.998 426.121 239.998 424C239.998 421.879 239.156 419.844 237.656 418.344L187.312 368L237.656 317.656C239.156 316.156 239.998 314.121 239.998 312C239.998 309.879 239.156 307.844 237.656 306.344ZM170.344 362.344C168.844 363.844 168.002 365.879 168.002 368C168.002 370.121 168.844 372.156 170.344 373.656L220.688 424L200 444.688L149.656 394.344C148.156 392.844 146.121 392.002 144 392.002C141.879 392.002 139.844 392.844 138.344 394.344L88 444.688L67.312 424L117.656 373.656C119.156 372.156 119.998 370.121 119.998 368C119.998 365.879 119.156 363.844 117.656 362.344L67.312 312L88 291.312L138.344 341.656C139.844 343.156 141.879 343.998 144 343.998C146.121 343.998 148.156 343.156 149.656 341.656L200 291.312L220.688 312L170.344 362.344Z" fill="black"/>
</svg>
