<svg width="512" height="512" viewBox="0 0 512 512" fill="none" xmlns="http://www.w3.org/2000/svg">
<mask id="mask0_5_3" style="mask-type:luminance" maskUnits="userSpaceOnUse" x="0" y="0" width="512" height="512">
<path d="M0 0.00149536H511.999V512H0V0.00149536Z" fill="white"/>
</mask>
<g mask="url(#mask0_5_3)">
<path d="M374.666 126.168V249.091C374.666 257.172 372.208 265.061 367.617 271.711C363.027 278.362 356.522 283.458 348.966 286.324C289.069 309.037 222.929 309.037 163.033 286.324C155.477 283.458 148.972 278.362 144.381 271.711C139.791 265.061 137.333 257.172 137.333 249.091V126.168C137.333 60.6303 190.461 7.50149 255.999 7.50149C321.537 7.50149 374.666 60.6303 374.666 126.168Z" fill="#E19974"/>
<path d="M255.999 7.50149C250.918 7.50149 245.912 7.82249 240.999 8.44149C299.456 15.8155 344.666 65.7113 344.666 126.168V249.091C344.666 257.172 342.208 265.061 337.617 271.712C333.027 278.362 326.522 283.458 318.966 286.324C293.975 295.795 267.682 301.39 240.999 302.913C277.754 305.025 314.541 299.373 348.966 286.324C356.522 283.458 363.027 278.362 367.617 271.712C372.208 265.061 374.666 257.172 374.666 249.091V126.168C374.666 60.6303 321.537 7.50149 255.999 7.50149Z" fill="#DC8758"/>
<path d="M414.279 512C419.802 512 424.279 507.523 424.279 502V357.385C424.279 338.415 411.322 321.891 392.883 317.343L319.513 299.25L299.542 298.024C290.321 295.75 283.843 287.488 283.843 278.002V245.69H228.155V278.002C228.155 287.488 221.677 295.75 212.457 298.024L192.485 299.25L119.117 317.343C100.677 321.891 87.7198 338.415 87.7198 357.385V502C87.7198 507.523 92.1967 512 97.7197 512H414.279Z" fill="#AEE69C"/>
<path d="M392.882 317.343L319.513 299.25L304.884 318.04L362.882 332.343C381.322 336.89 394.278 353.414 394.278 372.384V512H414.278C419.801 512 424.278 507.523 424.278 502V357.384C424.278 338.415 411.322 321.89 392.882 317.343Z" fill="#89DAA4"/>
<path d="M192.485 299.25C204.678 321.792 228.547 337.107 255.999 337.107C283.452 337.107 307.32 321.792 319.513 299.25L299.542 298.024C290.321 295.75 283.843 287.488 283.843 278.002V245.69H213.155V278.002C213.155 287.488 206.677 295.75 197.457 298.024L192.485 299.25Z" fill="#FFCEBF"/>
<path d="M284.542 313.024L304.885 318.041C310.765 312.627 315.708 306.278 319.514 299.25L314.542 298.024C305.322 295.75 298.844 287.488 298.844 278.003V245.69H268.844V293.003C268.844 302.488 275.322 310.75 284.542 313.024Z" fill="#FFB09E"/>
<path d="M168.671 126.578V187.255C168.671 219.875 186.599 248.313 213.152 263.274C225.811 270.406 240.429 269.478 255.999 269.478C255.999 269.478 285.251 270.662 297.625 263.949C324.847 249.179 343.327 220.372 343.327 187.255V126.578C333.014 126.527 310.966 124.988 288.117 111.281C276.402 104.253 267.845 96.0472 261.88 89.0852C258.928 85.6393 253.522 85.7843 250.85 89.4522C245.578 96.6882 237.496 105.591 225.691 112.999C201.461 128.205 177.19 127.296 168.671 126.578Z" fill="#FFCEBF"/>
<path d="M288.118 111.281C276.364 104.23 267.789 95.9932 261.822 89.0162C258.878 85.5743 253.52 85.7872 250.853 89.4482C248.235 93.0451 245.36 96.4483 242.251 99.6312C247.169 103.996 252.481 107.896 258.118 111.281C269.119 117.881 279.934 121.659 289.344 123.809C303.369 127.014 313.328 139.458 313.328 153.845V187.255C313.541 193.007 314.003 221.406 292.57 243.706C272.833 264.242 242.142 271.686 213.155 263.27C221.305 267.748 232.631 272.454 246.595 273.972C249.718 274.311 252.858 274.479 255.999 274.475C304.23 274.475 343.328 235.426 343.328 187.255V126.578C333.015 126.527 310.967 124.988 288.118 111.281Z" fill="#FFB09E"/>
<path d="M354.079 167.751H343.327V126.578H354.079C365.449 126.578 374.665 135.795 374.665 147.165C374.665 158.534 365.449 167.751 354.079 167.751Z" fill="#FFCEBF"/>
<path d="M157.92 167.751H168.671V126.578H157.92C146.55 126.578 137.334 135.795 137.334 147.165C137.334 158.534 146.55 167.751 157.92 167.751Z" fill="#FFB09E"/>
<path d="M381.62 474.84L263.499 502.73L260.132 500.432C257.009 501.17 253.756 501.17 250.632 500.432L248.499 502.73L130.379 474.84C128.844 474.478 127.477 473.608 126.498 472.372C125.519 471.135 124.987 469.605 124.987 468.028V351.278C124.987 344.616 131.203 339.697 137.686 341.228L248.499 367.393L251.248 369.39C254.372 370.128 257.625 370.128 260.749 369.39L263.499 367.393L374.327 341.225C380.804 339.696 387.012 344.609 387.012 351.263V468.028C387.012 469.605 386.479 471.135 385.5 472.372C384.522 473.608 383.154 474.478 381.62 474.84Z" fill="#F58A97"/>
<path d="M381.62 474.84C383.154 474.478 384.522 473.608 385.5 472.372C386.479 471.135 387.012 469.605 387.012 468.028V351.263C387.012 344.609 380.804 339.696 374.327 341.225L355.385 345.697C356.452 347.357 357.017 349.29 357.012 351.263L356.826 480.694L381.62 474.84Z" fill="#F07281"/>
<path d="M77.4498 504.5H109.601C120.224 504.5 128.836 495.899 128.836 485.289V445.668C128.836 435.058 120.224 426.457 109.601 426.457H77.4508C75.6909 426.457 73.984 427.059 72.6134 428.163C71.2429 429.267 70.2914 430.807 69.9168 432.526C67.3233 444.36 66.1348 456.459 66.3758 468.571C66.6058 480.009 68.0858 490.081 69.9158 498.431C70.2905 500.15 71.2422 501.69 72.6126 502.794C73.9831 503.898 75.69 504.5 77.4498 504.5Z" fill="#FFCEBF"/>
<path d="M109.602 426.457H84.6017C95.2247 426.457 103.837 435.058 103.837 445.668V485.29C103.837 495.899 95.2247 504.5 84.6017 504.5H109.602C120.225 504.5 128.837 495.899 128.837 485.29V445.668C128.837 435.058 120.225 426.457 109.602 426.457Z" fill="#FFB09E"/>
<path d="M434.549 504.5H402.398C391.775 504.5 383.163 495.899 383.163 485.289V445.668C383.163 435.058 391.775 426.457 402.398 426.457H434.548C436.308 426.457 438.015 427.059 439.385 428.163C440.756 429.267 441.707 430.807 442.082 432.526C444.675 444.36 445.864 456.459 445.623 468.571C445.42 478.616 444.234 488.617 442.083 498.431C441.708 500.15 440.756 501.69 439.386 502.794C438.015 503.898 436.309 504.5 434.549 504.5Z" fill="#FFCEBF"/>
<path d="M442.081 432.526C441.706 430.807 440.754 429.267 439.384 428.163C438.013 427.059 436.306 426.457 434.547 426.457H409.547C411.307 426.457 413.013 427.059 414.384 428.163C415.754 429.267 416.706 430.807 417.081 432.526C419.674 444.36 420.863 456.459 420.622 468.571C420.419 478.616 419.233 488.617 417.082 498.431C416.707 500.15 415.755 501.69 414.385 502.794C413.014 503.898 411.308 504.5 409.548 504.5H434.548C436.307 504.5 438.014 503.898 439.385 502.794C440.755 501.69 441.707 500.15 442.082 498.431C443.912 490.081 445.392 480.009 445.622 468.571C445.863 456.459 444.674 444.36 442.081 432.526Z" fill="#FFB09E"/>
</g>
</svg>
